<?xml version="1.0" encoding="UTF-8"?>
<svg width="89px" height="80px" viewBox="0 0 89 80" version="1.1" xmlns="http://www.w3.org/2000/svg" xmlns:xlink="http://www.w3.org/1999/xlink">
    <!-- Generator: Sketch 51.3 (57544) - http://www.bohemiancoding.com/sketch -->
    <title>Multicolor</title>
    <desc>Created with Sketch.</desc>
    <defs></defs>
    <g id="Page-1" stroke="none" stroke-width="1" fill="none" fill-rule="evenodd">
        <g id="approve" transform="translate(0.000000, -81.000000)">
            <g id="Multicolor" transform="translate(0.000000, 81.000000)">
                <g id="Background">
                    <g id="New_Symbol_28-link" transform="translate(44.514900, 39.999800) scale(-1, 1) rotate(-180.000000) translate(-44.514900, -39.999800) translate(0.514900, -0.000200)">
                        <g id="New_Symbol_28">
                            <g id="Group" transform="translate(4.000000, 0.000000)" fill-rule="nonzero">
                                <path d="M80.5,40 C80.5,62.1 62.6,80 40.5,80 C18.4,80 0.5,62.1 0.5,40 C0.5,34.1 1.8,28.5 4.1,23.5 L77,23.5 C79.2,28.5 80.5,34.1 80.5,40 Z" id="Shape" fill="#C3DAFE"></path>
                                <path d="M4.1,23.5 C10.3,9.6 24.3,0 40.5,0 C56.7,0 70.7,9.6 76.9,23.5 L4.1,23.5 Z" id="Shape" fill="#FFE0D0"></path>
                            </g>
                            <g id="Group" transform="translate(0.000000, 23.000000)" stroke="#45413C" stroke-linecap="round" stroke-linejoin="round">
                                <path d="M5,0.5 L83,0.5" id="Shape"></path>
                                <path d="M0.5,0.5 L3,0.5" id="Shape"></path>
                                <path d="M85,0.5 L87.5,0.5" id="Shape"></path>
                            </g>
                        </g>
                    </g>
                </g>
                <g id="Scene" transform="translate(19.000000, 18.000000)">
                    <g id="Group">
                        <ellipse id="Oval" fill="#45413C" fill-rule="nonzero" opacity="0.15" cx="26.6" cy="41.8" rx="21.4" ry="1.7"></ellipse>
                        <path d="M50.3,39.6 C50.3,40.2 49.8,40.7 49.2,40.7 L21.2,40.7 C20.6,40.7 20.1,40.2 20.1,39.6 L20.1,1.1 C20.1,0.5 20.6,0 21.2,0 L44.3,0 C44.6,0 44.9,0.1 45.1,0.3 L50,5.2 C50.2,5.4 50.3,5.7 50.3,6 L50.3,39.6 Z" id="Shape" fill="#F0F0F0" fill-rule="nonzero"></path>
                        <path d="M20.1,4.4 C20.1,3.8 20.6,3.3 21.2,3.3 L48.1,3.3 L45.1,0.3 C44.9,0.1 44.6,0 44.3,0 L21.2,0 C20.6,0 20.1,0.5 20.1,1.1 L20.1,4.4 Z" id="Shape" fill="#FFFFFF" fill-rule="nonzero"></path>
                        <path d="M50.3,39.6 C50.3,40.2 49.8,40.7 49.2,40.7 L21.2,40.7 C20.6,40.7 20.1,40.2 20.1,39.6 L20.1,1.1 C20.1,0.5 20.6,0 21.2,0 L44.3,0 C44.6,0 44.9,0.1 45.1,0.3 L50,5.2 C50.2,5.4 50.3,5.7 50.3,6 L50.3,39.6 Z" id="Shape" stroke="#45413C" stroke-linejoin="round"></path>
                        <circle id="Oval" stroke="#46B000" cx="42.1" cy="30.8" r="5.5"></circle>
                        <polyline id="Shape" stroke="#46B000" stroke-linecap="round" stroke-linejoin="round" points="39.4 30.8 41.6 33 45.1 28.9"></polyline>
                        <path d="M27.3,13.2 L44.3,13.2" id="Shape" stroke="#45413C" stroke-linecap="round" stroke-linejoin="round"></path>
                        <path d="M28.8,9.9 L36.1,9.9" id="Shape" stroke="#45413C" stroke-linecap="round" stroke-linejoin="round"></path>
                        <path d="M27.3,16.5 L44.3,16.5" id="Shape" stroke="#45413C" stroke-linecap="round" stroke-linejoin="round"></path>
                        <path d="M27.3,19.8 L44.3,19.8" id="Shape" stroke="#45413C" stroke-linecap="round" stroke-linejoin="round"></path>
                        <path d="M44.8,4.5 C44.8,5.1 45.2,5.5 45.8,5.5 L50.2,5.5 C50.1,5.4 50.1,5.3 50,5.2 L45.1,0.3 C45,0.2 44.9,0.1 44.8,0.1 L44.8,4.5 Z" id="Shape" stroke="#45413C" fill="#FFFFFF" fill-rule="nonzero" stroke-linejoin="round"></path>
                        <path d="M34.9,36.4 C34.9,37 34.5,37.4 33.9,37.4 L1.8,37.4 C1.2,37.4 0.8,37 0.8,36.4 L0.8,33.7 C0.8,31.5 2.6,29.7 4.8,29.7 L30.9,29.7 C33.1,29.7 34.9,31.5 34.9,33.7 L34.9,36.4 Z" id="Shape" fill="#FF6242" fill-rule="nonzero"></path>
                        <path d="M34.9,33.7 C34.9,31.5 33.1,29.7 30.9,29.7 L4.8,29.7 C2.6,29.7 0.8,31.5 0.8,33.7 L0.8,36.4 C0.8,36.5 0.8,36.5 0.8,36.6 C1,34.6 2.7,33 4.8,33 L30.9,33 C33,33 34.7,34.6 34.9,36.6 C34.9,36.5 34.9,36.5 34.9,36.4 L34.9,33.7 Z" id="Shape" fill="#FF866E" fill-rule="nonzero"></path>
                        <path d="M23,15.4 L12.7,15.4 C12.5,15.4 12.2,15.3 12,15.3 C12.5,16.4 14,20.3 14,29.7 L21.7,29.7 C21.7,20.3 23.2,16.4 23.7,15.3 C23.4,15.4 23.2,15.4 23,15.4 Z" id="Shape" fill="#FF6242" fill-rule="nonzero"></path>
                        <path d="M12.7,15.4 C12.5,15.4 12.2,15.3 12,15.3 C12.1,15.6 12.4,16.1 12.6,16.9 L23.1,16.9 C23.3,16.1 23.6,15.6 23.7,15.3 C23.5,15.4 23.2,15.4 23,15.4 L12.7,15.4 Z" id="Shape" fill="#E04122" fill-rule="nonzero"></path>
                        <path d="M32.3,40.1 C32.2,40.5 31.8,40.8 31.4,40.8 L4.2,40.8 C3.8,40.8 3.4,40.5 3.3,40.1 L2.4,37.5 L33.2,37.5 L32.3,40.1 Z" id="Shape" fill="#656769" fill-rule="nonzero"></path>
                        <path d="M34.9,36.4 C34.9,37 34.5,37.4 33.9,37.4 L1.8,37.4 C1.2,37.4 0.8,37 0.8,36.4 L0.8,33.7 C0.8,31.5 2.6,29.7 4.8,29.7 L30.9,29.7 C33.1,29.7 34.9,31.5 34.9,33.7 L34.9,36.4 Z" id="Shape" stroke="#45413C" stroke-linejoin="round"></path>
                        <path d="M23,15.4 L12.7,15.4 C12.5,15.4 12.2,15.3 12,15.3 C12.5,16.4 14,20.3 14,29.7 L21.7,29.7 C21.7,20.3 23.2,16.4 23.7,15.3 C23.4,15.4 23.2,15.4 23,15.4 Z" id="Shape" stroke="#45413C" stroke-linejoin="round"></path>
                        <path d="M32.3,40.1 C32.2,40.5 31.8,40.8 31.4,40.8 L4.2,40.8 C3.8,40.8 3.4,40.5 3.3,40.1 L2.4,37.5 L33.2,37.5 L32.3,40.1 Z" id="Shape" stroke="#45413C" stroke-linejoin="round"></path>
                        <path d="M13.9,26.4 L21.7,26.4" id="Shape" stroke="#45413C" stroke-linejoin="round"></path>
                        <path d="M23,15.4 L12.7,15.4 C11.6,15.4 10.7,14.5 10.7,13.4 L10.7,8.6 C10.7,7.5 11.6,6.6 12.7,6.6 L23,6.6 C24.1,6.6 25,7.5 25,8.6 L25,13.4 C25,14.6 24.1,15.4 23,15.4 Z" id="Shape" fill="#FF6242" fill-rule="nonzero"></path>
                        <path d="M23,6.6 L12.7,6.6 C11.6,6.6 10.7,7.5 10.7,8.6 L10.7,11.4 C10.7,10.3 11.6,9.4 12.7,9.4 L23,9.4 C24.1,9.4 25,10.3 25,11.4 L25,8.6 C25,7.5 24.1,6.6 23,6.6 Z" id="Shape" fill="#FF866E" fill-rule="nonzero"></path>
                        <path d="M23,15.4 L12.7,15.4 C11.6,15.4 10.7,14.5 10.7,13.4 L10.7,8.6 C10.7,7.5 11.6,6.6 12.7,6.6 L23,6.6 C24.1,6.6 25,7.5 25,8.6 L25,13.4 C25,14.6 24.1,15.4 23,15.4 Z" id="Shape" stroke="#45413C" stroke-linejoin="round"></path>
                    </g>
                </g>
            </g>
        </g>
    </g>
</svg>