<?xml version="1.0" encoding="UTF-8"?>
<svg width="80px" height="80px" viewBox="0 0 80 80" version="1.1" xmlns="http://www.w3.org/2000/svg" xmlns:xlink="http://www.w3.org/1999/xlink">
    <!-- Generator: Sketch 51.3 (57544) - http://www.bohemiancoding.com/sketch -->
    <title>Multicolor</title>
    <desc>Created with Sketch.</desc>
    <defs></defs>
    <g id="Page-1" stroke="none" stroke-width="1" fill="none" fill-rule="evenodd">
        <g id="security" transform="translate(0.000000, -88.000000)">
            <g id="Multicolor" transform="translate(0.000000, 88.000000)">
                <g id="Background" fill="#FFE0D0" fill-rule="nonzero">
                    <g id="New_Symbol_1_18_-link" transform="translate(40.000000, 39.999800) scale(-1, 1) rotate(-180.000000) translate(-40.000000, -39.999800) translate(0.000000, -0.000200)">
                        <g id="New_Symbol_1_18_">
                            <circle id="Oval" cx="40" cy="40" r="40"></circle>
                        </g>
                    </g>
                </g>
                <g id="Scene" transform="translate(18.000000, 10.000000)">
                    <g id="Group">
                        <g id="Shape">
                            <path d="M22,0.5 L41.5,7.3 C42.7,7.7 43.5,8.9 43.5,10.1 L43.5,31 C43.5,45.5 22,53.5 22,53.5 C22,53.5 0.5,45.5 0.5,31 L0.5,10.1 C0.5,8.8 1.3,7.7 2.5,7.3 L22,0.5 Z" fill="#434190" fill-rule="nonzero"></path>
                            <path d="M22,53.5 C22,53.5 0.5,45.5 0.5,31 L0.5,10.1 C0.5,8.8 1.3,7.7 2.5,7.3 L22,0.5 L22,53.5 Z" fill="#4C51BF" fill-rule="nonzero"></path>
                            <path d="M22,0.5 L41.5,7.3 C42.7,7.7 43.5,8.9 43.5,10.1 L43.5,31 C43.5,45.5 22,53.5 22,53.5 C22,53.5 0.5,45.5 0.5,31 L0.5,10.1 C0.5,8.8 1.3,7.7 2.5,7.3 L22,0.5 Z" stroke="#45413C" stroke-linecap="round" stroke-linejoin="round"></path>
                        </g>
                        <g transform="translate(7.000000, 11.000000)">
                            <g>
                                <circle id="Oval" fill="#F0F0F0" fill-rule="nonzero" cx="15" cy="15" r="14.5"></circle>
                                <path d="M15,7 C21.9,7 27.6,11.8 29.1,18.2 C29.3,17.2 29.5,16.1 29.5,15 C29.5,7 23,0.5 15,0.5 C7,0.5 0.5,7 0.5,15 C0.5,16.1 0.6,17.2 0.9,18.2 C2.4,11.8 8.1,7 15,7 Z" id="Shape" fill="#FFFFFF" fill-rule="nonzero"></path>
                                <circle id="Oval" stroke="#45413C" stroke-linecap="round" stroke-linejoin="round" cx="15" cy="15" r="14.5"></circle>
                            </g>
                            <g transform="translate(8.000000, 4.000000)" id="Shape">
                                <path d="M12.5,20.5 L1.5,20.5 C0.9,20.5 0.5,20.1 0.5,19.5 L0.5,9.5 C0.5,8.9 0.9,8.5 1.5,8.5 L12.5,8.5 C13.1,8.5 13.5,8.9 13.5,9.5 L13.5,19.5 C13.5,20.1 13.1,20.5 12.5,20.5 Z" fill="#FFE500" fill-rule="nonzero"></path>
                                <path d="M12.5,6 C12.5,3 10,0.5 7,0.5 C4,0.5 1.5,3 1.5,6 L1.5,8.5 L4.5,8.5 L4.5,6 C4.5,4.6 5.6,3.5 7,3.5 C8.4,3.5 9.5,4.6 9.5,6 L9.5,8.5 L12.5,8.5 L12.5,6 Z" stroke="#45413C" fill="#E8F4FA" fill-rule="nonzero" stroke-linecap="round" stroke-linejoin="round"></path>
                                <path d="M12.5,8.5 L1.5,8.5 C0.9,8.5 0.5,8.9 0.5,9.5 L0.5,12 C0.5,11.4 0.9,11 1.5,11 L12.5,11 C13.1,11 13.5,11.4 13.5,12 L13.5,9.5 C13.5,8.9 13.1,8.5 12.5,8.5 Z" fill="#FFF48C" fill-rule="nonzero"></path>
                                <path d="M12.5,20.5 L1.5,20.5 C0.9,20.5 0.5,20.1 0.5,19.5 L0.5,9.5 C0.5,8.9 0.9,8.5 1.5,8.5 L12.5,8.5 C13.1,8.5 13.5,8.9 13.5,9.5 L13.5,19.5 C13.5,20.1 13.1,20.5 12.5,20.5 Z" stroke="#45413C" stroke-linecap="round" stroke-linejoin="round"></path>
                                <path d="M8.5,14 C8.5,13.2 7.8,12.5 7,12.5 C6.2,12.5 5.5,13.2 5.5,14 C5.5,14.4 5.7,14.8 6,15.1 L6,16.5 C6,17.1 6.4,17.5 7,17.5 C7.6,17.5 8,17.1 8,16.5 L8,15.1 C8.3,14.8 8.5,14.4 8.5,14 Z" stroke="#45413C" fill="#87898C" fill-rule="nonzero" stroke-linecap="round" stroke-linejoin="round"></path>
                            </g>
                        </g>
                        <ellipse id="Oval" fill="#45413C" fill-rule="nonzero" opacity="0.15" cx="22" cy="58.9" rx="12" ry="1.5"></ellipse>
                    </g>
                </g>
            </g>
        </g>
    </g>
</svg>